<mxfile host="app.diagrams.net" modified="2022-03-15T12:02:39.233Z" agent="5.0 (Macintosh; Intel Mac OS X 10_13_6) AppleWebKit/537.36 (KHTML, like Gecko) Chrome/99.0.4844.51 Safari/537.36" etag="ihld36nL_XZgml68iGLv" version="17.1.2" type="github">
  <diagram id="Nf9d43UAX67dq9_h-hgD" name="Page-1">
    <mxGraphModel dx="1350" dy="772" grid="1" gridSize="10" guides="1" tooltips="1" connect="1" arrows="1" fold="1" page="1" pageScale="1" pageWidth="827" pageHeight="1169" math="0" shadow="0">
      <root>
        <mxCell id="0" />
        <mxCell id="1" parent="0" />
        <mxCell id="9YEBq9Bi1FaMwtoSq2sg-1" value="行为权重" style="whiteSpace=wrap;html=1;flipH=1;flipV=1;" vertex="1" parent="1">
          <mxGeometry x="140" y="260" width="120" height="60" as="geometry" />
        </mxCell>
        <mxCell id="9YEBq9Bi1FaMwtoSq2sg-2" value="时间衰减" style="whiteSpace=wrap;html=1;flipH=1;flipV=1;" vertex="1" parent="1">
          <mxGeometry x="307" y="260" width="120" height="60" as="geometry" />
        </mxCell>
        <mxCell id="9YEBq9Bi1FaMwtoSq2sg-3" value="热度衰减" style="whiteSpace=wrap;html=1;flipH=1;flipV=1;" vertex="1" parent="1">
          <mxGeometry x="473" y="260" width="120" height="60" as="geometry" />
        </mxCell>
        <mxCell id="9YEBq9Bi1FaMwtoSq2sg-4" value="活跃度衰减" style="whiteSpace=wrap;html=1;flipH=1;flipV=1;" vertex="1" parent="1">
          <mxGeometry x="640" y="260" width="120" height="60" as="geometry" />
        </mxCell>
        <mxCell id="9YEBq9Bi1FaMwtoSq2sg-6" value="1/1+a（T-t）" style="text;html=1;align=center;verticalAlign=middle;resizable=0;points=[];autosize=1;strokeColor=none;fillColor=none;" vertex="1" parent="1">
          <mxGeometry x="332" y="300" width="80" height="20" as="geometry" />
        </mxCell>
        <mxCell id="9YEBq9Bi1FaMwtoSq2sg-7" value="action：浏览" style="text;html=1;align=center;verticalAlign=middle;resizable=0;points=[];autosize=1;strokeColor=none;fillColor=none;fontSize=14;" vertex="1" parent="1">
          <mxGeometry x="15" y="340" width="90" height="20" as="geometry" />
        </mxCell>
        <mxCell id="9YEBq9Bi1FaMwtoSq2sg-8" value="action：收藏" style="text;html=1;align=center;verticalAlign=middle;resizable=0;points=[];autosize=1;strokeColor=none;fillColor=none;fontSize=14;" vertex="1" parent="1">
          <mxGeometry x="15" y="383" width="90" height="20" as="geometry" />
        </mxCell>
        <mxCell id="9YEBq9Bi1FaMwtoSq2sg-9" value="action：加购" style="text;html=1;align=center;verticalAlign=middle;resizable=0;points=[];autosize=1;strokeColor=none;fillColor=none;fontSize=14;" vertex="1" parent="1">
          <mxGeometry x="15" y="427" width="90" height="20" as="geometry" />
        </mxCell>
        <mxCell id="9YEBq9Bi1FaMwtoSq2sg-10" value="action：咨询" style="text;html=1;align=center;verticalAlign=middle;resizable=0;points=[];autosize=1;strokeColor=none;fillColor=none;fontSize=14;" vertex="1" parent="1">
          <mxGeometry x="15" y="470" width="90" height="20" as="geometry" />
        </mxCell>
        <mxCell id="9YEBq9Bi1FaMwtoSq2sg-11" value="0.1" style="whiteSpace=wrap;html=1;fontSize=14;" vertex="1" parent="1">
          <mxGeometry x="164" y="330" width="70" height="30" as="geometry" />
        </mxCell>
        <mxCell id="9YEBq9Bi1FaMwtoSq2sg-12" value="20" style="whiteSpace=wrap;html=1;fontSize=14;" vertex="1" parent="1">
          <mxGeometry x="164" y="374" width="70" height="30" as="geometry" />
        </mxCell>
        <mxCell id="9YEBq9Bi1FaMwtoSq2sg-13" value="20" style="whiteSpace=wrap;html=1;fontSize=14;" vertex="1" parent="1">
          <mxGeometry x="164" y="419" width="70" height="30" as="geometry" />
        </mxCell>
        <mxCell id="9YEBq9Bi1FaMwtoSq2sg-14" value="20" style="whiteSpace=wrap;html=1;fontSize=14;" vertex="1" parent="1">
          <mxGeometry x="164" y="463" width="70" height="30" as="geometry" />
        </mxCell>
        <mxCell id="9YEBq9Bi1FaMwtoSq2sg-15" value="0.3" style="whiteSpace=wrap;html=1;fontSize=14;" vertex="1" parent="1">
          <mxGeometry x="325" y="330" width="70" height="30" as="geometry" />
        </mxCell>
        <mxCell id="9YEBq9Bi1FaMwtoSq2sg-16" value="0.2" style="whiteSpace=wrap;html=1;fontSize=14;" vertex="1" parent="1">
          <mxGeometry x="325" y="374" width="70" height="30" as="geometry" />
        </mxCell>
        <mxCell id="9YEBq9Bi1FaMwtoSq2sg-17" value="0.2" style="whiteSpace=wrap;html=1;fontSize=14;" vertex="1" parent="1">
          <mxGeometry x="325" y="419" width="70" height="30" as="geometry" />
        </mxCell>
        <mxCell id="9YEBq9Bi1FaMwtoSq2sg-18" value="0.1" style="whiteSpace=wrap;html=1;fontSize=14;" vertex="1" parent="1">
          <mxGeometry x="325" y="463" width="70" height="30" as="geometry" />
        </mxCell>
        <mxCell id="9YEBq9Bi1FaMwtoSq2sg-19" value="0.3" style="whiteSpace=wrap;html=1;fontSize=14;" vertex="1" parent="1">
          <mxGeometry x="495" y="330" width="70" height="30" as="geometry" />
        </mxCell>
        <mxCell id="9YEBq9Bi1FaMwtoSq2sg-20" value="2" style="whiteSpace=wrap;html=1;fontSize=14;" vertex="1" parent="1">
          <mxGeometry x="495" y="374" width="70" height="30" as="geometry" />
        </mxCell>
        <mxCell id="9YEBq9Bi1FaMwtoSq2sg-21" value="2" style="whiteSpace=wrap;html=1;fontSize=14;" vertex="1" parent="1">
          <mxGeometry x="495" y="419" width="70" height="30" as="geometry" />
        </mxCell>
        <mxCell id="9YEBq9Bi1FaMwtoSq2sg-22" value="1" style="whiteSpace=wrap;html=1;fontSize=14;" vertex="1" parent="1">
          <mxGeometry x="495" y="463" width="70" height="30" as="geometry" />
        </mxCell>
        <mxCell id="9YEBq9Bi1FaMwtoSq2sg-23" value="6" style="whiteSpace=wrap;html=1;fontSize=14;" vertex="1" parent="1">
          <mxGeometry x="665" y="330" width="70" height="30" as="geometry" />
        </mxCell>
        <mxCell id="9YEBq9Bi1FaMwtoSq2sg-24" value="6" style="whiteSpace=wrap;html=1;fontSize=14;" vertex="1" parent="1">
          <mxGeometry x="665" y="374" width="70" height="30" as="geometry" />
        </mxCell>
        <mxCell id="9YEBq9Bi1FaMwtoSq2sg-25" value="6" style="whiteSpace=wrap;html=1;fontSize=14;" vertex="1" parent="1">
          <mxGeometry x="665" y="419" width="70" height="30" as="geometry" />
        </mxCell>
        <mxCell id="9YEBq9Bi1FaMwtoSq2sg-26" value="6" style="whiteSpace=wrap;html=1;fontSize=14;" vertex="1" parent="1">
          <mxGeometry x="665" y="463" width="70" height="30" as="geometry" />
        </mxCell>
        <mxCell id="9YEBq9Bi1FaMwtoSq2sg-27" value="" style="shape=umlDestroy;whiteSpace=wrap;html=1;strokeWidth=3;fontSize=14;" vertex="1" parent="1">
          <mxGeometry x="272" y="280" width="20" height="20" as="geometry" />
        </mxCell>
        <mxCell id="9YEBq9Bi1FaMwtoSq2sg-28" value="" style="shape=umlDestroy;whiteSpace=wrap;html=1;strokeWidth=3;fontSize=14;" vertex="1" parent="1">
          <mxGeometry x="440" y="280" width="20" height="20" as="geometry" />
        </mxCell>
        <mxCell id="9YEBq9Bi1FaMwtoSq2sg-29" value="" style="shape=umlDestroy;whiteSpace=wrap;html=1;strokeWidth=3;fontSize=14;" vertex="1" parent="1">
          <mxGeometry x="609" y="280" width="20" height="20" as="geometry" />
        </mxCell>
        <mxCell id="9YEBq9Bi1FaMwtoSq2sg-30" value="" style="shape=curlyBracket;whiteSpace=wrap;html=1;rounded=1;flipH=1;fontSize=14;rotation=90;size=0.5;" vertex="1" parent="1">
          <mxGeometry x="428" y="244" width="48" height="600" as="geometry" />
        </mxCell>
        <mxCell id="9YEBq9Bi1FaMwtoSq2sg-31" value="归一化" style="text;html=1;align=center;verticalAlign=middle;resizable=0;points=[];autosize=1;strokeColor=none;fillColor=none;fontSize=14;" vertex="1" parent="1">
          <mxGeometry x="422" y="575" width="60" height="20" as="geometry" />
        </mxCell>
      </root>
    </mxGraphModel>
  </diagram>
</mxfile>
